<svg xmlns="http://www.w3.org/2000/svg" xmlns:xlink="http://www.w3.org/1999/xlink" width="500" zoomAndPan="magnify" viewBox="0 0 375 374.999991" height="500" preserveAspectRatio="xMidYMid meet" version="1.0"><defs><clipPath id="b1db79a5e4"><path d="M 7.507812 247 L 365 247 L 365 367 L 7.507812 367 Z M 7.507812 247 " clip-rule="nonzero"/></clipPath></defs><g clip-path="url(#b1db79a5e4)"><path fill="#03002e" d="M 346.523438 286.972656 L 246.054688 344.972656 C 241.523438 347.589844 236.359375 348.96875 231.128906 348.96875 L 141.566406 348.96875 C 136.941406 348.96875 132.316406 347.871094 128.183594 345.816406 L 115.148438 339.296875 L 115.148438 275.898438 L 149.441406 267.328125 C 154.367188 266.089844 159.554688 266.136719 164.4375 267.441406 L 253.648438 291.363281 C 260.023438 293.070312 263.808594 299.632812 262.125 306.011719 C 261.285156 309.09375 259.300781 311.664062 256.542969 313.273438 C 253.765625 314.863281 250.5625 315.285156 247.457031 314.464844 L 176.164062 295.359375 C 172.941406 294.492188 169.691406 296.386719 168.828125 299.585938 C 167.964844 302.761719 169.855469 306.058594 173.054688 306.898438 L 244.375 326.003906 C 246.429688 326.566406 248.53125 326.847656 250.609375 326.847656 C 254.746094 326.847656 258.832031 325.75 262.523438 323.625 C 268.058594 320.421875 272.007812 315.261719 273.667969 309.09375 C 274.390625 306.382812 274.53125 303.675781 274.320312 301.011719 L 334.542969 266.25 C 340.171875 263.003906 347.691406 265.128906 350.847656 270.621094 C 354.140625 276.34375 352.203125 283.679688 346.523438 286.972656 Z M 103.1875 354.949219 L 67.308594 354.949219 L 67.308594 259.265625 L 103.1875 259.265625 Z M 19.464844 342.988281 L 19.464844 271.226562 L 55.347656 271.226562 L 55.347656 342.988281 Z M 340.476562 252.679688 C 336.316406 252.679688 332.207031 253.800781 328.585938 255.878906 L 270.253906 289.542969 C 267.148438 284.941406 262.523438 281.34375 256.753906 279.800781 L 167.542969 255.902344 C 160.675781 254.058594 153.433594 253.988281 146.542969 255.714844 L 115.148438 263.566406 L 115.148438 253.289062 C 115.148438 249.992188 112.460938 247.308594 109.167969 247.308594 L 61.328125 247.308594 C 58.035156 247.308594 55.347656 249.992188 55.347656 253.289062 L 55.347656 259.265625 L 13.488281 259.265625 C 10.191406 259.265625 7.507812 261.953125 7.507812 265.246094 L 7.507812 348.96875 C 7.507812 352.261719 10.191406 354.949219 13.488281 354.949219 L 55.347656 354.949219 L 55.347656 360.929688 C 55.347656 364.222656 58.035156 366.910156 61.328125 366.910156 L 109.167969 366.910156 C 112.460938 366.910156 115.148438 364.222656 115.148438 360.929688 L 115.148438 352.660156 L 122.832031 356.511719 C 128.625 359.410156 135.097656 360.929688 141.566406 360.929688 L 231.128906 360.929688 C 238.441406 360.929688 245.679688 358.988281 252.035156 355.320312 L 352.503906 297.320312 C 363.882812 290.734375 367.78125 276.0625 361.21875 264.664062 C 356.988281 257.28125 349.023438 252.679688 340.476562 252.679688 " fill-opacity="1" fill-rule="nonzero"/></g><path fill="#03002e" d="M 240.730469 169.566406 L 240.730469 162.980469 C 251.148438 161.015625 258.667969 154.148438 258.667969 145.644531 C 258.667969 135.578125 248.15625 127.707031 234.75 127.707031 C 227.460938 127.707031 222.789062 124.15625 222.789062 121.726562 C 222.789062 119.296875 227.460938 115.746094 234.75 115.746094 C 242.039062 115.746094 246.710938 119.296875 246.710938 121.726562 C 246.710938 125.019531 249.394531 127.707031 252.6875 127.707031 C 255.984375 127.707031 258.667969 125.019531 258.667969 121.726562 C 258.667969 113.222656 251.148438 106.355469 240.730469 104.394531 L 240.730469 97.804688 C 240.730469 94.511719 238.042969 91.824219 234.75 91.824219 C 231.457031 91.824219 228.769531 94.511719 228.769531 97.804688 L 228.769531 104.394531 C 218.351562 106.355469 210.828125 113.222656 210.828125 121.726562 C 210.828125 131.792969 221.339844 139.667969 234.75 139.667969 C 242.039062 139.667969 246.710938 143.214844 246.710938 145.644531 C 246.710938 148.074219 242.039062 151.625 234.75 151.625 C 227.460938 151.625 222.789062 148.074219 222.789062 145.644531 C 222.789062 142.351562 220.101562 139.667969 216.808594 139.667969 C 213.515625 139.667969 210.828125 142.351562 210.828125 145.644531 C 210.828125 154.148438 218.351562 161.015625 228.769531 162.980469 L 228.769531 169.566406 C 228.769531 172.859375 231.457031 175.546875 234.75 175.546875 C 238.042969 175.546875 240.730469 172.859375 240.730469 169.566406 " fill-opacity="1" fill-rule="nonzero"/><path fill="#03002e" d="M 349.632812 104.671875 C 346.570312 106.589844 342.996094 106.777344 340.242188 105.46875 L 237.808594 44.824219 C 236.851562 44.289062 235.824219 43.984375 234.75 43.984375 C 233.675781 43.984375 232.648438 44.289062 231.6875 44.824219 L 129.492188 105.351562 C 126.335938 106.777344 122.855469 106.542969 119.867188 104.671875 C 116.875 102.78125 115.148438 99.652344 115.148438 96.007812 C 115.148438 92.128906 117.414062 88.53125 121.316406 86.617188 L 234.75 21.023438 L 348.605469 86.851562 C 352.085938 88.53125 354.351562 92.128906 354.351562 96.078125 C 354.351562 99.652344 352.621094 102.78125 349.632812 104.671875 Z M 318.46875 235.347656 L 151.027344 235.347656 L 151.027344 106.472656 L 234.75 56.902344 L 318.46875 106.472656 Z M 354.164062 76.269531 L 237.738281 8.875 C 235.894531 7.871094 233.605469 7.871094 231.757812 8.875 L 115.753906 76.035156 C 108.09375 79.75 103.1875 87.574219 103.1875 96.078125 C 103.1875 103.714844 107.066406 110.722656 113.535156 114.789062 C 119.984375 118.851562 127.996094 119.34375 134.886719 115.980469 C 135.074219 115.933594 135.191406 115.863281 135.355469 115.746094 L 139.066406 113.527344 L 139.066406 241.328125 C 139.066406 244.621094 141.753906 247.308594 145.046875 247.308594 L 324.449219 247.308594 C 327.742188 247.308594 330.429688 244.621094 330.429688 241.328125 L 330.429688 113.527344 L 334.613281 115.980469 C 337.671875 117.472656 340.964844 118.199219 344.1875 118.199219 C 348.300781 118.199219 352.363281 117.054688 355.960938 114.789062 C 362.433594 110.722656 366.3125 103.714844 366.3125 96.007812 C 366.3125 87.574219 361.40625 79.75 354.164062 76.269531 " fill-opacity="1" fill-rule="nonzero"/><path fill="#03002e" d="M 288.570312 205.445312 C 288.570312 208.742188 285.882812 211.425781 282.589844 211.425781 L 276.609375 211.425781 L 276.609375 187.507812 L 282.589844 187.507812 C 285.882812 187.507812 288.570312 190.191406 288.570312 193.488281 Z M 264.648438 211.425781 L 252.6875 211.425781 L 252.6875 187.507812 L 264.648438 187.507812 Z M 240.730469 211.425781 L 228.769531 211.425781 L 228.769531 187.507812 L 240.730469 187.507812 Z M 216.808594 211.425781 L 204.847656 211.425781 L 204.847656 187.507812 L 216.808594 187.507812 Z M 192.886719 133.6875 C 192.886719 110.605469 211.667969 91.824219 234.75 91.824219 C 257.828125 91.824219 276.609375 110.605469 276.609375 133.6875 C 276.609375 156.765625 257.828125 175.546875 234.75 175.546875 C 211.667969 175.546875 192.886719 156.765625 192.886719 133.6875 Z M 192.886719 211.425781 L 186.910156 211.425781 C 183.613281 211.425781 180.929688 208.742188 180.929688 205.445312 L 180.929688 193.488281 C 180.929688 190.191406 183.613281 187.507812 186.910156 187.507812 L 192.886719 187.507812 Z M 282.589844 175.546875 L 268.480469 175.546875 C 280.746094 165.6875 288.570312 150.621094 288.570312 133.6875 C 288.570312 104.019531 264.414062 79.867188 234.75 79.867188 C 205.082031 79.867188 180.929688 104.019531 180.929688 133.6875 C 180.929688 150.621094 188.753906 165.6875 201.019531 175.546875 L 186.910156 175.546875 C 177.050781 175.546875 168.96875 183.628906 168.96875 193.488281 L 168.96875 205.445312 C 168.96875 215.304688 177.050781 223.386719 186.910156 223.386719 L 282.589844 223.386719 C 292.449219 223.386719 300.53125 215.304688 300.53125 205.445312 L 300.53125 193.488281 C 300.53125 183.628906 292.449219 175.546875 282.589844 175.546875 " fill-opacity="1" fill-rule="nonzero"/><path fill="#03002e" d="M 85.246094 342.988281 C 88.542969 342.988281 91.226562 340.300781 91.226562 337.007812 L 91.226562 331.027344 C 91.226562 327.734375 88.542969 325.046875 85.246094 325.046875 C 81.953125 325.046875 79.265625 327.734375 79.265625 331.027344 L 79.265625 337.007812 C 79.265625 340.300781 81.953125 342.988281 85.246094 342.988281 " fill-opacity="1" fill-rule="nonzero"/></svg>