<svg xmlns="http://www.w3.org/2000/svg" xmlns:xlink="http://www.w3.org/1999/xlink" width="500" zoomAndPan="magnify" viewBox="0 0 375 374.999991" height="500" preserveAspectRatio="xMidYMid meet" version="1.0"><defs><clipPath id="4ae56653fd"><path d="M 6.175781 130 L 104 130 L 104 276 L 6.175781 276 Z M 6.175781 130 " clip-rule="nonzero"/></clipPath><clipPath id="8a19b8b6e9"><path d="M 142 299 L 228 299 L 228 345.75 L 142 345.75 Z M 142 299 " clip-rule="nonzero"/></clipPath><clipPath id="d4e9f84714"><path d="M 124 37.5 L 257 37.5 L 257 166 L 124 166 Z M 124 37.5 " clip-rule="nonzero"/></clipPath></defs><g clip-path="url(#4ae56653fd)"><path fill="#03002e" d="M 59.675781 275.21875 C 58.53125 275.21875 57.378906 275.070312 56.222656 274.742188 L 16.160156 263.601562 C 12.796875 262.664062 10.011719 260.476562 8.316406 257.433594 C 6.617188 254.394531 6.214844 250.878906 7.175781 247.535156 L 38.144531 140.257812 C 40.109375 133.457031 47.25 129.472656 54.082031 131.371094 L 94.148438 142.515625 C 97.507812 143.449219 100.292969 145.636719 101.992188 148.679688 C 103.6875 151.71875 104.097656 155.238281 103.128906 158.585938 L 72.160156 265.863281 C 70.523438 271.503906 65.304688 275.21875 59.675781 275.21875 Z M 58.464844 266.699219 C 60.890625 267.375 63.421875 265.957031 64.125 263.542969 L 95.089844 156.265625 C 95.433594 155.078125 95.292969 153.824219 94.691406 152.746094 C 94.089844 151.667969 93.101562 150.890625 91.90625 150.558594 L 51.832031 139.414062 C 49.40625 138.738281 46.875 140.15625 46.171875 142.574219 L 15.207031 249.851562 C 14.863281 251.035156 15.003906 252.289062 15.605469 253.367188 C 16.210938 254.445312 17.195312 255.222656 18.390625 255.554688 Z M 58.464844 266.699219 " fill-opacity="1" fill-rule="nonzero"/></g><path fill="#03002e" d="M 64.988281 182.9375 C 63.722656 182.9375 62.453125 182.761719 61.207031 182.417969 C 57.59375 181.417969 54.59375 179.070312 52.753906 175.8125 C 50.914062 172.554688 50.453125 168.769531 51.457031 165.167969 C 53.53125 157.726562 61.28125 153.355469 68.734375 155.429688 C 76.183594 157.5 80.558594 165.242188 78.484375 172.6875 C 77.480469 176.296875 75.128906 179.296875 71.871094 181.132812 C 69.726562 182.328125 67.371094 182.9375 64.988281 182.9375 Z M 64.953125 163.265625 C 63.992188 163.265625 63.039062 163.515625 62.175781 164 C 60.855469 164.742188 59.910156 165.953125 59.5 167.40625 C 58.664062 170.414062 60.429688 173.539062 63.441406 174.375 C 64.894531 174.785156 66.425781 174.59375 67.746094 173.847656 C 69.066406 173.105469 70.011719 171.894531 70.421875 170.441406 C 71.257812 167.433594 69.496094 164.308594 66.484375 163.472656 C 65.972656 163.332031 65.464844 163.265625 64.953125 163.265625 Z M 74.445312 171.558594 Z M 74.445312 171.558594 " fill-opacity="1" fill-rule="nonzero"/><path fill="#03002e" d="M 321.59375 275.21875 C 315.960938 275.21875 310.742188 271.511719 309.109375 265.855469 L 278.144531 158.578125 C 277.183594 155.226562 277.585938 151.710938 279.28125 148.671875 C 280.980469 145.628906 283.765625 143.441406 287.125 142.503906 L 327.199219 131.363281 C 334.023438 129.464844 341.171875 133.449219 343.136719 140.25 L 374.101562 247.527344 C 375.066406 250.878906 374.664062 254.394531 372.964844 257.425781 C 371.269531 260.46875 368.484375 262.65625 365.121094 263.589844 L 325.050781 274.734375 C 323.894531 275.0625 322.734375 275.21875 321.59375 275.21875 Z M 330.660156 139.246094 C 330.25 139.246094 329.839844 139.296875 329.429688 139.414062 L 289.359375 150.558594 C 288.164062 150.890625 287.175781 151.667969 286.574219 152.746094 C 285.972656 153.824219 285.828125 155.078125 286.171875 156.265625 L 317.136719 263.542969 C 317.832031 265.957031 320.375 267.375 322.800781 266.699219 L 362.863281 255.554688 C 364.058594 255.222656 365.046875 254.445312 365.648438 253.367188 C 366.25 252.289062 366.394531 251.035156 366.050781 249.851562 L 335.085938 142.574219 C 334.515625 140.558594 332.660156 139.246094 330.660156 139.246094 Z M 328.3125 135.386719 Z M 328.3125 135.386719 " fill-opacity="1" fill-rule="nonzero"/><path fill="#03002e" d="M 315.992188 182.9375 C 309.855469 182.9375 304.203125 178.878906 302.480469 172.679688 C 301.476562 169.070312 301.9375 165.292969 303.777344 162.035156 C 305.613281 158.777344 308.617188 156.429688 312.230469 155.429688 C 319.679688 153.355469 327.433594 157.726562 329.507812 165.167969 C 331.582031 172.613281 327.207031 180.355469 319.757812 182.425781 C 318.492188 182.769531 317.230469 182.9375 315.992188 182.9375 Z M 315.984375 163.265625 C 315.484375 163.265625 314.972656 163.332031 314.472656 163.472656 C 313.015625 163.882812 311.804688 164.828125 311.058594 166.144531 C 310.316406 167.464844 310.132812 168.988281 310.53125 170.449219 C 310.941406 171.902344 311.886719 173.113281 313.207031 173.855469 C 314.519531 174.601562 316.050781 174.785156 317.515625 174.382812 C 320.523438 173.546875 322.289062 170.421875 321.453125 167.417969 C 320.742188 164.910156 318.46875 163.265625 315.984375 163.265625 Z M 315.984375 163.265625 " fill-opacity="1" fill-rule="nonzero"/><path fill="#03002e" d="M 272.175781 275.761719 C 269.933594 275.761719 268.078125 273.992188 268 271.738281 C 267.917969 269.429688 269.714844 267.5 272.023438 267.410156 C 272.234375 267.402344 292.894531 266.492188 309.035156 255.328125 C 310.933594 254.019531 313.542969 254.496094 314.855469 256.390625 C 316.167969 258.289062 315.691406 260.886719 313.792969 262.203125 C 295.597656 274.785156 273.269531 275.730469 272.332031 275.761719 C 272.273438 275.761719 272.222656 275.761719 272.175781 275.761719 Z M 272.175781 275.761719 " fill-opacity="1" fill-rule="nonzero"/><path fill="#03002e" d="M 83.519531 270.910156 C 82.449219 270.910156 81.378906 270.5 80.558594 269.691406 L 68.164062 257.308594 C 66.535156 255.679688 66.535156 253.03125 68.164062 251.402344 C 69.796875 249.773438 72.445312 249.773438 74.078125 251.402344 L 86.46875 263.785156 C 88.101562 265.414062 88.101562 268.0625 86.46875 269.691406 C 85.660156 270.507812 84.589844 270.910156 83.519531 270.910156 Z M 83.519531 270.910156 " fill-opacity="1" fill-rule="nonzero"/><g clip-path="url(#8a19b8b6e9)"><path fill="#03002e" d="M 165.585938 345.792969 C 160.125 345.792969 154.671875 343.71875 150.519531 339.566406 L 143.382812 332.441406 C 141.753906 330.8125 141.753906 328.164062 143.382812 326.535156 C 145.015625 324.90625 147.667969 324.90625 149.296875 326.535156 L 156.429688 333.664062 C 161.480469 338.707031 169.691406 338.707031 174.742188 333.664062 C 177.195312 331.230469 178.539062 327.980469 178.539062 324.523438 C 178.539062 322.84375 178.222656 321.207031 177.59375 319.652344 C 176.949219 318.058594 175.996094 316.621094 174.75 315.375 C 173.121094 313.746094 173.121094 311.097656 174.75 309.46875 C 176.382812 307.839844 179.035156 307.839844 180.664062 309.46875 L 196.542969 325.324219 C 201.59375 330.371094 209.808594 330.371094 214.859375 325.324219 C 217.300781 322.886719 218.65625 319.628906 218.65625 316.179688 C 218.65625 312.726562 217.308594 309.476562 214.859375 307.03125 C 213.226562 305.402344 213.226562 302.753906 214.859375 301.125 C 216.488281 299.496094 219.140625 299.496094 220.769531 301.125 C 224.792969 305.144531 227.007812 310.488281 227.007812 316.179688 C 227.007812 321.867188 224.792969 327.214844 220.769531 331.230469 C 212.457031 339.535156 198.9375 339.535156 190.632812 331.230469 L 186.726562 327.332031 C 186.125 331.964844 184.015625 336.242188 180.65625 339.585938 C 176.492188 343.71875 171.039062 345.792969 165.585938 345.792969 Z M 165.585938 345.792969 " fill-opacity="1" fill-rule="nonzero"/></g><path fill="#03002e" d="M 236.894531 320.210938 C 231.433594 320.210938 225.980469 318.140625 221.824219 313.988281 L 182.8125 275.027344 C 181.183594 273.398438 181.183594 270.75 182.8125 269.121094 C 184.445312 267.492188 187.09375 267.492188 188.726562 269.121094 L 227.726562 308.082031 C 232.777344 313.128906 240.992188 313.128906 246.042969 308.082031 C 251.09375 303.039062 251.09375 294.835938 246.042969 289.789062 L 207.03125 250.828125 C 205.398438 249.199219 205.398438 246.550781 207.03125 244.921875 C 208.660156 243.292969 211.3125 243.292969 212.941406 244.921875 L 251.953125 283.882812 C 260.265625 292.1875 260.265625 305.695312 251.953125 313.988281 C 247.804688 318.140625 242.34375 320.210938 236.894531 320.210938 Z M 236.894531 320.210938 " fill-opacity="1" fill-rule="nonzero"/><path fill="#03002e" d="M 255.265625 290.171875 C 249.570312 290.171875 244.21875 287.960938 240.195312 283.933594 C 238.566406 282.304688 238.566406 279.65625 240.195312 278.027344 C 241.828125 276.398438 244.476562 276.398438 246.109375 278.027344 C 248.558594 280.472656 251.804688 281.820312 255.265625 281.820312 C 258.726562 281.820312 261.972656 280.472656 264.421875 278.027344 C 266.363281 276.082031 267.617188 273.625 268.042969 270.933594 C 268.160156 270.242188 268.21875 269.566406 268.21875 268.878906 C 268.21875 265.429688 266.871094 262.179688 264.421875 259.722656 L 202.488281 197.855469 C 197.984375 193.355469 191.367188 191.632812 185.238281 193.355469 C 182.09375 194.238281 179.257812 195.976562 177.042969 198.382812 L 157.742188 219.316406 C 157.699219 219.359375 157.667969 219.402344 157.625 219.441406 C 148.542969 228.515625 133.777344 228.515625 124.695312 219.441406 C 117.402344 212.160156 115.753906 201.164062 120.589844 192.085938 C 126.792969 180.4375 137.515625 164.476562 153.371094 154.492188 C 153.429688 154.460938 153.484375 154.417969 153.542969 154.382812 C 166.582031 146.230469 180.875 143.492188 196.007812 146.230469 C 198.285156 146.566406 229.792969 151.402344 254.511719 168.328125 L 281.296875 156.765625 C 283.421875 155.855469 285.878906 156.824219 286.792969 158.945312 C 287.710938 161.058594 286.734375 163.523438 284.609375 164.433594 L 255.675781 176.921875 C 254.320312 177.507812 252.757812 177.332031 251.570312 176.472656 C 227.929688 159.398438 195.074219 154.535156 194.746094 154.492188 C 194.695312 154.484375 194.636719 154.476562 194.585938 154.46875 C 181.476562 152.078125 169.105469 154.460938 157.835938 161.558594 C 157.777344 161.59375 157.726562 161.628906 157.667969 161.660156 C 143.453125 170.675781 133.675781 185.300781 127.972656 196.011719 C 124.878906 201.824219 125.933594 208.867188 130.605469 213.535156 C 136.402344 219.324219 145.828125 219.351562 151.65625 213.59375 L 170.898438 192.726562 C 174.15625 189.1875 178.339844 186.621094 182.980469 185.316406 C 192.019531 182.777344 201.769531 185.316406 208.410156 191.949219 L 270.34375 253.816406 C 274.363281 257.84375 276.582031 263.191406 276.582031 268.871094 C 276.582031 270.023438 276.488281 271.167969 276.304688 272.269531 C 275.609375 276.671875 273.554688 280.714844 270.351562 283.925781 C 266.3125 287.960938 260.960938 290.171875 255.265625 290.171875 Z M 255.265625 290.171875 " fill-opacity="1" fill-rule="nonzero"/><path fill="#03002e" d="M 97.550781 167.464844 C 95.644531 167.464844 93.921875 166.15625 93.476562 164.214844 C 92.96875 161.96875 94.371094 159.730469 96.621094 159.210938 C 123.808594 153.03125 154.371094 153.816406 155.703125 153.851562 C 157.960938 153.910156 159.78125 155.753906 159.78125 158.027344 C 159.78125 160.375 157.835938 162.285156 155.476562 162.203125 C 154.222656 162.171875 124.660156 161.402344 98.476562 167.359375 C 98.167969 167.433594 97.859375 167.464844 97.550781 167.464844 Z M 97.550781 167.464844 " fill-opacity="1" fill-rule="nonzero"/><path fill="#03002e" d="M 93.242188 287.515625 C 89.144531 287.515625 85.289062 285.921875 82.398438 283.03125 C 79.503906 280.140625 77.90625 276.289062 77.90625 272.195312 C 77.90625 268.101562 79.503906 264.261719 82.398438 261.363281 L 95.59375 248.179688 C 101.574219 242.207031 111.304688 242.207031 117.285156 248.179688 C 120.179688 251.070312 121.777344 254.921875 121.777344 259.015625 C 121.777344 263.105469 120.179688 266.957031 117.285156 269.847656 C 115.65625 271.476562 113.003906 271.476562 111.375 269.847656 C 109.742188 268.21875 109.742188 265.570312 111.375 263.941406 C 112.695312 262.621094 113.414062 260.875 113.414062 259.015625 C 113.414062 257.152344 112.6875 255.40625 111.375 254.085938 C 108.65625 251.371094 104.230469 251.371094 101.503906 254.085938 L 88.308594 267.265625 C 86.988281 268.585938 86.269531 270.332031 86.269531 272.195312 C 86.269531 274.058594 86.996094 275.804688 88.308594 277.125 C 89.632812 278.445312 91.378906 279.164062 93.242188 279.164062 C 95.109375 279.164062 96.855469 278.4375 98.175781 277.125 C 99.808594 275.496094 102.457031 275.496094 104.089844 277.125 C 105.71875 278.753906 105.71875 281.402344 104.089844 283.03125 C 101.1875 285.921875 97.339844 287.515625 93.242188 287.515625 Z M 93.242188 287.515625 " fill-opacity="1" fill-rule="nonzero"/><path fill="#03002e" d="M 104.316406 307.976562 C 100.386719 307.976562 96.464844 306.480469 93.46875 303.496094 C 90.574219 300.605469 88.980469 296.753906 88.980469 292.664062 C 88.980469 288.570312 90.574219 284.71875 93.46875 281.828125 L 111.363281 263.949219 C 117.34375 257.976562 127.078125 257.976562 133.058594 263.949219 C 135.949219 266.851562 137.546875 270.691406 137.546875 274.785156 C 137.546875 278.878906 135.949219 282.730469 133.058594 285.621094 C 131.425781 287.25 128.773438 287.25 127.144531 285.621094 C 125.515625 283.992188 125.515625 281.34375 127.144531 279.714844 C 128.464844 278.394531 129.183594 276.648438 129.183594 274.785156 C 129.183594 272.921875 128.457031 271.175781 127.144531 269.855469 C 124.425781 267.140625 119.996094 267.140625 117.277344 269.855469 L 99.382812 287.734375 C 98.058594 289.054688 97.339844 290.800781 97.339844 292.664062 C 97.339844 294.523438 98.070312 296.269531 99.382812 297.589844 C 102.097656 300.304688 106.523438 300.304688 109.25 297.589844 C 110.878906 295.960938 113.53125 295.960938 115.160156 297.589844 C 116.792969 299.21875 116.792969 301.867188 115.160156 303.496094 C 112.175781 306.480469 108.246094 307.976562 104.316406 307.976562 Z M 104.316406 307.976562 " fill-opacity="1" fill-rule="nonzero"/><path fill="#03002e" d="M 114.902344 328.933594 C 110.804688 328.933594 106.949219 327.339844 104.054688 324.449219 C 101.164062 321.558594 99.566406 317.707031 99.566406 313.613281 C 99.566406 309.519531 101.164062 305.675781 104.054688 302.777344 L 127.152344 279.707031 C 133.132812 273.734375 142.867188 273.734375 148.84375 279.707031 C 151.738281 282.605469 153.335938 286.449219 153.335938 290.539062 C 153.335938 294.632812 151.738281 298.484375 148.84375 301.375 L 125.75 324.449219 C 122.847656 327.339844 119 328.933594 114.902344 328.933594 Z M 137.992188 283.574219 C 136.203125 283.574219 134.421875 284.25 133.058594 285.613281 L 109.960938 308.683594 C 108.640625 310.003906 107.917969 311.75 107.917969 313.613281 C 107.917969 315.476562 108.648438 317.222656 109.960938 318.542969 C 111.28125 319.863281 113.027344 320.582031 114.894531 320.582031 C 116.757812 320.582031 118.507812 319.855469 119.828125 318.542969 L 142.925781 295.46875 C 144.246094 294.148438 144.964844 292.402344 144.964844 290.539062 C 144.964844 288.679688 144.238281 286.933594 142.925781 285.613281 C 141.570312 284.25 139.78125 283.574219 137.992188 283.574219 Z M 137.992188 283.574219 " fill-opacity="1" fill-rule="nonzero"/><path fill="#03002e" d="M 137.378906 337.996094 C 133.28125 337.996094 129.425781 336.402344 126.535156 333.511719 C 123.640625 330.621094 122.042969 326.769531 122.042969 322.675781 C 122.042969 318.582031 123.640625 314.734375 126.535156 311.84375 C 128.164062 310.214844 130.816406 310.214844 132.445312 311.84375 C 134.078125 313.472656 134.078125 316.121094 132.445312 317.75 C 131.125 319.070312 130.40625 320.8125 130.40625 322.675781 C 130.40625 324.539062 131.132812 326.285156 132.445312 327.605469 C 133.769531 328.925781 135.515625 329.644531 137.378906 329.644531 C 139.246094 329.644531 140.992188 328.917969 142.3125 327.605469 L 158.703125 311.234375 C 161.421875 308.519531 161.421875 304.089844 158.703125 301.375 C 155.988281 298.660156 151.5625 298.660156 148.835938 301.375 C 147.207031 303.003906 144.554688 303.003906 142.925781 301.375 C 141.292969 299.746094 141.292969 297.097656 142.925781 295.46875 C 148.902344 289.496094 158.636719 289.496094 164.617188 295.46875 C 170.597656 301.441406 170.597656 311.164062 164.617188 317.140625 L 148.226562 333.511719 C 145.332031 336.402344 141.476562 337.996094 137.378906 337.996094 Z M 137.378906 337.996094 " fill-opacity="1" fill-rule="nonzero"/><g clip-path="url(#d4e9f84714)"><path fill="#03002e" d="M 232.9375 165.519531 C 232.058594 165.519531 231.171875 165.242188 230.421875 164.675781 C 228.582031 163.28125 228.210938 160.667969 229.609375 158.828125 C 241.609375 143 247.949219 124.035156 247.949219 104.011719 L 247.949219 68.535156 L 190.632812 46.269531 L 133.324219 68.527344 L 133.324219 104.003906 C 133.324219 122.617188 138.867188 140.476562 149.363281 155.652344 C 150.675781 157.550781 150.199219 160.15625 148.300781 161.46875 C 146.402344 162.78125 143.792969 162.304688 142.480469 160.40625 C 131.015625 143.832031 124.953125 124.328125 124.953125 104.011719 L 124.953125 65.675781 C 124.953125 63.957031 126.015625 62.410156 127.621094 61.785156 L 189.109375 37.910156 C 190.089844 37.535156 191.167969 37.535156 192.136719 37.910156 L 253.625 61.785156 C 255.230469 62.410156 256.292969 63.957031 256.292969 65.675781 L 256.292969 104.011719 C 256.292969 125.875 249.371094 146.574219 236.265625 163.875 C 235.445312 164.945312 234.199219 165.519531 232.9375 165.519531 Z M 232.9375 165.519531 " fill-opacity="1" fill-rule="nonzero"/></g><path fill="#03002e" d="M 211.414062 158.058594 C 210.402344 158.058594 209.390625 157.699219 208.585938 156.964844 C 206.878906 155.402344 206.773438 152.765625 208.328125 151.066406 C 220.152344 138.1875 226.664062 121.480469 226.664062 104.011719 L 226.664062 83.070312 L 190.632812 69.070312 L 154.597656 83.0625 L 154.597656 104.003906 C 154.597656 120.628906 160.5625 136.714844 171.390625 149.320312 C 172.894531 151.078125 172.695312 153.707031 170.9375 155.210938 C 169.191406 156.714844 166.546875 156.515625 165.042969 154.761719 C 152.910156 140.644531 146.226562 122.617188 146.226562 103.996094 L 146.226562 80.195312 C 146.226562 78.476562 147.289062 76.929688 148.894531 76.304688 L 189.109375 60.691406 C 190.089844 60.3125 191.167969 60.3125 192.136719 60.691406 L 232.351562 76.304688 C 233.957031 76.929688 235.019531 78.476562 235.019531 80.195312 L 235.019531 103.996094 C 235.019531 123.558594 227.726562 142.273438 214.488281 156.699219 C 213.671875 157.601562 212.542969 158.058594 211.414062 158.058594 Z M 211.414062 158.058594 " fill-opacity="1" fill-rule="nonzero"/><path fill="#03002e" d="M 182.445312 131.320312 C 181.375 131.320312 180.304688 130.910156 179.484375 130.101562 L 167.84375 118.472656 C 166.214844 116.84375 166.214844 114.195312 167.84375 112.566406 C 169.476562 110.9375 172.125 110.9375 173.757812 112.566406 L 182.445312 121.246094 L 207.507812 96.210938 C 209.136719 94.582031 211.789062 94.582031 213.417969 96.210938 C 215.050781 97.839844 215.050781 100.488281 213.417969 102.117188 L 185.398438 130.109375 C 184.585938 130.910156 183.515625 131.320312 182.445312 131.320312 Z M 182.445312 131.320312 " fill-opacity="1" fill-rule="nonzero"/></svg>